<?xml version="1.0" encoding="utf-8"?>
<!-- Generator: Adobe Illustrator 27.5.0, SVG Export Plug-In . SVG Version: 6.00 Build 0)  -->
<svg version="1.1" xmlns="http://www.w3.org/2000/svg" xmlns:xlink="http://www.w3.org/1999/xlink" x="0px" y="0px"
	 viewBox="0 0 750 500" style="enable-background:new 0 0 750 500;" xml:space="preserve">
<g id="BACKGROUND">
	<rect style="fill:#FFFFFF;" width="750" height="500"/>
	<g>
		<g>
			<g>
				<g>
					<path style="fill:none;stroke:#E8EAFF;stroke-miterlimit:10;" d="M315.039,105.518c1.16,0,2.101,0.941,2.101,2.101
						c0,1.16-0.941,2.101-2.101,2.101c-1.16,0-2.101-0.941-2.101-2.101C312.938,106.459,313.879,105.518,315.039,105.518z"/>
					<path style="fill:none;stroke:#E8EAFF;stroke-miterlimit:10;" d="M315.039,109.721c0,7.701,0,23.103,0,23.103"/>
				</g>
			</g>
			<g>
				<g>
					<path style="fill:none;stroke:#E8EAFF;stroke-miterlimit:10;" d="M276.78,104.818c1.16,0,2.101,0.941,2.101,2.101
						c0,1.16-0.941,2.101-2.101,2.101c-1.161,0-2.101-0.941-2.101-2.101C274.679,105.759,275.62,104.818,276.78,104.818z"/>
					<path style="fill:none;stroke:#E8EAFF;stroke-miterlimit:10;" d="M276.78,109.02c0,7.923,0,23.769,0,23.769"/>
				</g>
				<g>
					<path style="fill:none;stroke:#E8EAFF;stroke-miterlimit:10;" d="M270.477,120.577c1.16,0,2.101,0.941,2.101,2.101
						c0,1.16-0.941,2.101-2.101,2.101c-1.16,0-2.101-0.941-2.101-2.101C268.376,121.517,269.316,120.577,270.477,120.577z"/>
					<path style="fill:none;stroke:#E8EAFF;stroke-miterlimit:10;" d="M270.477,124.779c0,2.604,0,7.813,0,7.813"/>
				</g>
				<g>
					<path style="fill:none;stroke:#E8EAFF;stroke-miterlimit:10;" d="M298.697,88.619c1.16,0,2.101,0.941,2.101,2.101
						c0,1.16-0.941,2.101-2.101,2.101c-1.16,0-2.101-0.941-2.101-2.101C296.595,89.56,297.536,88.619,298.697,88.619z"/>
					<path style="fill:none;stroke:#E8EAFF;stroke-miterlimit:10;" d="M298.697,92.822c-0.339,12.829,0,39.804,0,39.804"/>
				</g>
			</g>
			<g>
				<g>
					<path style="fill:none;stroke:#E8EAFF;stroke-miterlimit:10;" d="M349.277,104.818c1.16,0,2.101,0.941,2.101,2.101
						c0,1.16-0.941,2.101-2.101,2.101s-2.101-0.941-2.101-2.101C347.176,105.759,348.116,104.818,349.277,104.818z"/>
					<path style="fill:none;stroke:#E8EAFF;stroke-miterlimit:10;" d="M349.277,109.02c0,7.923,0,23.769,0,23.769"/>
				</g>
				<g>
					<path style="fill:none;stroke:#E8EAFF;stroke-miterlimit:10;" d="M342.973,120.577c1.16,0,2.101,0.941,2.101,2.101
						c0,1.16-0.941,2.101-2.101,2.101c-1.16,0-2.101-0.941-2.101-2.101C340.872,121.517,341.813,120.577,342.973,120.577z"/>
					<path style="fill:none;stroke:#E8EAFF;stroke-miterlimit:10;" d="M342.973,124.779c0,2.604,0,7.813,0,7.813"/>
				</g>
				<g>
					<path style="fill:none;stroke:#E8EAFF;stroke-miterlimit:10;" d="M371.193,93.966c1.16,0,2.101,0.941,2.101,2.101
						c0,1.16-0.941,2.101-2.101,2.101c-1.16,0-2.101-0.941-2.101-2.101C369.092,94.907,370.033,93.966,371.193,93.966z"/>
					<path style="fill:none;stroke:#E8EAFF;stroke-miterlimit:10;" d="M371.193,98.168c0.164,11.483,0,34.457,0,34.457"/>
				</g>
			</g>
		</g>
		<g>
			<g>
				<g>
					<path style="fill:none;stroke:#E8EAFF;stroke-miterlimit:10;" d="M433.526,90.862c-1.16,0-2.101,0.941-2.101,2.101
						s0.941,2.101,2.101,2.101c1.16,0,2.101-0.941,2.101-2.101S434.687,90.862,433.526,90.862z"/>
					<path style="fill:none;stroke:#E8EAFF;stroke-miterlimit:10;" d="M433.526,95.064c-1.169,12.587-1.057,37.247-1.057,37.247"/>
				</g>
				<g>
					<path style="fill:none;stroke:#E8EAFF;stroke-miterlimit:10;" d="M442.121,105.518c-1.16,0-2.101,0.941-2.101,2.101
						c0,1.16,0.941,2.101,2.101,2.101c1.16,0,2.101-0.941,2.101-2.101C444.222,106.459,443.281,105.518,442.121,105.518z"/>
					<path style="fill:none;stroke:#E8EAFF;stroke-miterlimit:10;" d="M442.121,109.721c0,7.701,0,23.103,0,23.103"/>
				</g>
			</g>
			<g>
				<g>
					<path style="fill:none;stroke:#E8EAFF;stroke-miterlimit:10;" d="M480.379,100.245c-1.16,0-2.101,0.941-2.101,2.101
						s0.941,2.101,2.101,2.101c1.16,0,2.101-0.941,2.101-2.101S481.54,100.245,480.379,100.245z"/>
					<path style="fill:none;stroke:#E8EAFF;stroke-miterlimit:10;" d="M480.379,104.448c0,9.447,0,28.342,0,28.342"/>
				</g>
				<g>
					<path style="fill:none;stroke:#E8EAFF;stroke-miterlimit:10;" d="M486.683,120.577c-1.16,0-2.101,0.941-2.101,2.101
						c0,1.16,0.941,2.101,2.101,2.101c1.16,0,2.101-0.941,2.101-2.101C488.784,121.517,487.843,120.577,486.683,120.577z"/>
					<path style="fill:none;stroke:#E8EAFF;stroke-miterlimit:10;" d="M486.683,124.779c0,2.604,0,7.813,0,7.813"/>
				</g>
				<g>
					<path style="fill:none;stroke:#E8EAFF;stroke-miterlimit:10;" d="M458.463,93.472c-1.16,0-2.101,0.941-2.101,2.101
						c0,1.16,0.941,2.101,2.101,2.101s2.101-0.941,2.101-2.101C460.564,94.413,459.624,93.472,458.463,93.472z"/>
					<path style="fill:none;stroke:#E8EAFF;stroke-miterlimit:10;" d="M458.463,97.674c-0.106,11.977,0,34.951,0,34.951"/>
				</g>
			</g>
			<g>
				<g>
					<path style="fill:none;stroke:#E8EAFF;stroke-miterlimit:10;" d="M407.883,104.818c-1.16,0-2.101,0.941-2.101,2.101
						c0,1.16,0.941,2.101,2.101,2.101c1.16,0,2.101-0.941,2.101-2.101C409.984,105.759,409.043,104.818,407.883,104.818z"/>
					<path style="fill:none;stroke:#E8EAFF;stroke-miterlimit:10;" d="M407.883,109.02c0,7.923,0,23.769,0,23.769"/>
				</g>
				<g>
					<path style="fill:none;stroke:#E8EAFF;stroke-miterlimit:10;" d="M414.186,120.577c-1.16,0-2.101,0.941-2.101,2.101
						c0,1.16,0.941,2.101,2.101,2.101c1.16,0,2.101-0.941,2.101-2.101C416.288,121.517,415.347,120.577,414.186,120.577z"/>
					<path style="fill:none;stroke:#E8EAFF;stroke-miterlimit:10;" d="M414.186,124.779c0,2.604,0,7.813,0,7.813"/>
				</g>
				<g>
					<path style="fill:none;stroke:#E8EAFF;stroke-miterlimit:10;" d="M385.967,102.95c-1.161,0-2.101,0.941-2.101,2.101
						s0.941,2.101,2.101,2.101c1.16,0,2.101-0.941,2.101-2.101S387.127,102.95,385.967,102.95z"/>
					<path style="fill:none;stroke:#E8EAFF;stroke-miterlimit:10;" d="M385.967,107.153c0,8.491,0,25.472,0,25.472"/>
				</g>
			</g>
		</g>
	</g>
	<g>
		<path style="fill:#C2C7FF;" d="M216.654,154.486v-63.03c-57.614,0-104.32,46.706-104.32,104.32h63.03
			C175.364,172.971,193.85,154.486,216.654,154.486z"/>
		<path style="fill:#9AA1ED;" d="M216.654,91.455v63.03c22.804,0,41.29,18.486,41.29,41.29h63.03
			C320.974,138.161,274.268,91.455,216.654,91.455z"/>
		<path style="fill:#C2C7FF;" d="M216.654,237.065v63.03c57.614,0,104.32-46.706,104.32-104.32h-63.03
			C257.944,218.579,239.457,237.065,216.654,237.065z"/>
		<path style="fill:#E8EAFF;" d="M175.364,195.775h-63.03c0,57.614,46.706,104.32,104.32,104.32v-63.03
			C193.85,237.065,175.364,218.579,175.364,195.775z"/>
	</g>
	<g>
		<g>
			<g>
				<path style="fill:#E8EAFF;" d="M540.86,364.268H218.3c-0.909,0-1.646-0.737-1.646-1.646V141.705
					c0-4.905,3.976-8.881,8.881-8.881h308.091c4.905,0,8.881,3.976,8.881,8.881v220.917
					C542.506,363.531,541.769,364.268,540.86,364.268z"/>
				
					<rect x="275.332" y="97.093" transform="matrix(-1.836970e-16 1 -1 -1.836970e-16 628.1256 -131.0342)" style="fill:#B3B9FF;" width="208.497" height="302.906"/>
				<polygon style="fill:#A6ADFF;" points="347.69,352.794 452.846,144.297 531.033,144.297 531.033,352.794 				"/>
				<g>
					<g>
						<rect x="335.354" y="169.475" style="fill:#FFFFFF;" width="26.787" height="26.787"/>
						<polygon style="fill:#1E2778;" points="362.141,196.262 335.354,196.262 345.721,184.436 351.547,190.809 362.141,177.872 
													"/>
						<circle style="fill:#FFD74A;" cx="355.393" cy="176.276" r="4.08"/>
					</g>
					<g>
						<rect x="372.573" y="169.475" style="fill:#FFFFFF;" width="26.787" height="26.787"/>
						<polygon style="fill:#1E2778;" points="399.36,196.262 372.573,196.262 382.94,184.436 388.766,190.809 399.36,177.872 						
							"/>
						<path style="fill:#FFD74A;" d="M388.531,176.276c0-2.254,1.827-4.08,4.08-4.08c2.254,0,4.08,1.827,4.08,4.08
							c0,2.253-1.827,4.08-4.08,4.08C390.358,180.356,388.531,178.529,388.531,176.276z"/>
					</g>
					<g>
						<rect x="409.792" y="169.475" style="fill:#FFFFFF;" width="26.787" height="26.787"/>
						<polygon style="fill:#1E2778;" points="436.579,196.262 409.792,196.262 420.159,184.436 425.985,190.809 436.579,177.872 
													"/>
						<path style="fill:#FFD74A;" d="M425.75,176.276c0-2.254,1.827-4.08,4.081-4.08c2.254,0,4.08,1.827,4.08,4.08
							c0,2.253-1.827,4.08-4.08,4.08C427.577,180.356,425.75,178.529,425.75,176.276z"/>
					</g>
				</g>
				
					<rect x="371.447" y="0.978" transform="matrix(-1.836970e-16 1 -1 -1.836970e-16 532.0107 -227.1491)" style="fill:#FFD74A;" width="16.267" height="302.906"/>
			</g>
			<g>
				<path style="fill:#D6DAFF;" d="M571.443,377.272H187.717c-4.085,0-7.397-3.312-7.397-7.397v-4.545
					c0-0.587,0.476-1.062,1.062-1.062h396.395c0.587,0,1.062,0.476,1.062,1.062v4.545
					C578.839,373.96,575.528,377.272,571.443,377.272z"/>
				<path style="fill:#C2C7FF;" d="M181.241,373.447c1.26,2.28,3.687,3.825,6.476,3.825h383.726c2.789,0,5.216-1.545,6.476-3.825
					H181.241z"/>
				<path style="fill:#C2C7FF;" d="M400.902,369.431h-42.644c-2.852,0-5.163-2.312-5.163-5.163l0,0h52.97l0,0
					C406.065,367.12,403.753,369.431,400.902,369.431z"/>
			</g>
			<g>
				<path style="fill:#DEE1FF;" d="M379.579,141.225c-1.061,0-1.925-0.864-1.925-1.926c0-1.062,0.864-1.926,1.925-1.926
					c1.062,0,1.926,0.864,1.926,1.926C381.505,140.361,380.642,141.225,379.579,141.225z M379.579,138.522
					c-0.429,0-0.778,0.349-0.778,0.778c0,0.429,0.349,0.778,0.778,0.778c0.429,0,0.779-0.349,0.779-0.778
					C380.358,138.871,380.009,138.522,379.579,138.522z"/>
			</g>
		</g>
		<g>
			<rect x="515.724" y="150.136" style="fill:#FFFFFF;" width="5.88" height="0.86"/>
			<rect x="515.724" y="152.001" style="fill:#FFFFFF;" width="5.88" height="0.86"/>
			<rect x="515.724" y="153.865" style="fill:#FFFFFF;" width="5.88" height="0.861"/>
		</g>
		<g>
			<rect x="246.133" y="150.136" style="fill:#FFBB00;" width="25.389" height="4.589"/>
			<rect x="284.958" y="150.136" style="fill:#FFBB00;" width="25.389" height="4.589"/>
			<rect x="323.783" y="150.136" style="fill:#FFBB00;" width="25.389" height="4.589"/>
			<rect x="362.607" y="150.136" style="fill:#FFBB00;" width="25.389" height="4.589"/>
			<rect x="400.268" y="150.136" style="fill:#FFBB00;" width="25.389" height="4.589"/>
			<rect x="437.929" y="150.136" style="fill:#FFBB00;" width="25.389" height="4.589"/>
			<rect x="475.589" y="150.136" style="fill:#FFBB00;" width="25.389" height="4.589"/>
		</g>
		<linearGradient id="SVGID_1_" gradientUnits="userSpaceOnUse" x1="216.6536" y1="223.7768" x2="317.956" y2="223.7768">
			<stop  offset="0" style="stop-color:#FFFFFF;stop-opacity:0.2"/>
			<stop  offset="1" style="stop-color:#FFFFFF"/>
		</linearGradient>
		<path style="opacity:0.28;fill:url(#SVGID_1_);" d="M317.956,132.824h-92.421c-4.905,0-8.881,3.976-8.881,8.881V314.73
			L317.956,132.824z"/>
	</g>
	<g>
		<path style="fill:#1E2778;" d="M83.557,309.457c0-7.882,1.478-15.735,4.434-23.56c2.956-7.821,7.267-14.811,12.935-20.973
			c5.665-6.158,12.566-11.147,20.696-14.967c8.13-3.817,17.369-5.728,27.717-5.728c12.317,0,23.005,2.65,32.06,7.945
			c9.054,5.298,15.799,12.196,20.233,20.696l-23.283,16.261c-1.478-3.448-3.357-6.312-5.635-8.593
			c-2.281-2.278-4.775-4.126-7.484-5.544c-2.711-1.415-5.483-2.402-8.315-2.957c-2.835-0.554-5.607-0.831-8.315-0.831
			c-5.792,0-10.842,1.172-15.152,3.511c-4.314,2.341-7.885,5.359-10.718,9.054c-2.835,3.696-4.928,7.885-6.282,12.565
			c-1.357,4.683-2.033,9.424-2.033,14.228c0,5.173,0.8,10.163,2.402,14.967c1.6,4.804,3.91,9.053,6.929,12.75
			c3.017,3.695,6.652,6.623,10.902,8.777c4.25,2.156,9.022,3.233,14.32,3.233c2.708,0,5.512-0.337,8.408-1.016
			c2.892-0.676,5.664-1.724,8.315-3.142c2.647-1.414,5.081-3.263,7.299-5.544c2.217-2.277,4.002-5.082,5.359-8.408l24.761,14.598
			c-1.972,4.804-4.897,9.118-8.777,12.935c-3.881,3.82-8.347,7.022-13.397,9.608c-5.053,2.587-10.411,4.56-16.076,5.913
			c-5.667,1.355-11.211,2.033-16.63,2.033c-9.487,0-18.201-1.94-26.147-5.821c-7.945-3.88-14.782-9.022-20.511-15.428
			c-5.728-6.404-10.163-13.674-13.304-21.805C85.127,326.087,83.557,317.835,83.557,309.457z"/>
		<path style="fill:#1E2778;" d="M637.419,283.034c-0.37-0.491-1.663-1.415-3.881-2.772c-2.217-1.354-4.989-2.772-8.315-4.25
			c-3.326-1.479-6.961-2.772-10.902-3.881c-3.943-1.109-7.885-1.663-11.826-1.663c-10.841,0-16.261,3.635-16.261,10.902
			c0,2.217,0.583,4.065,1.755,5.543c1.169,1.478,2.893,2.804,5.174,3.973c2.278,1.172,5.142,2.249,8.593,3.233
			c3.447,0.987,7.452,2.096,12.011,3.326c6.282,1.727,11.947,3.604,17,5.635c5.049,2.033,9.331,4.56,12.842,7.577
			c3.511,3.019,6.219,6.684,8.131,10.995c1.909,4.313,2.864,9.487,2.864,15.521c0,7.391-1.386,13.645-4.157,18.756
			c-2.772,5.112-6.438,9.238-10.995,12.38c-4.558,3.142-9.793,5.423-15.706,6.837c-5.914,1.414-12.011,2.125-18.294,2.125
			c-4.804,0-9.732-0.369-14.782-1.109c-5.053-0.738-9.978-1.816-14.782-3.233c-4.804-1.415-9.456-3.11-13.951-5.082
			c-4.498-1.968-8.656-4.249-12.473-6.837l13.304-26.423c0.491,0.617,2.093,1.787,4.805,3.511c2.708,1.726,6.066,3.45,10.07,5.173
			c4.002,1.727,8.468,3.266,13.397,4.62c4.925,1.357,9.915,2.033,14.967,2.033c10.718,0,16.076-3.263,16.076-9.793
			c0-2.463-0.803-4.496-2.402-6.099c-1.603-1.599-3.82-3.049-6.653-4.342c-2.835-1.293-6.19-2.494-10.07-3.603
			c-3.881-1.109-8.102-2.339-12.658-3.697c-6.037-1.847-11.271-3.848-15.706-6.005c-4.435-2.154-8.102-4.649-10.995-7.484
			c-2.896-2.832-5.053-6.098-6.467-9.793c-1.418-3.697-2.125-8.007-2.125-12.935c0-6.898,1.293-12.995,3.881-18.293
			c2.587-5.295,6.098-9.762,10.533-13.397c4.434-3.632,9.577-6.375,15.429-8.223c5.849-1.848,12.04-2.772,18.571-2.772
			c4.556,0,9.054,0.433,13.489,1.293c4.435,0.863,8.685,1.972,12.75,3.326c4.065,1.357,7.853,2.896,11.364,4.62
			c3.511,1.727,6.745,3.45,9.701,5.174L637.419,283.034z"/>
		<g>
			<path style="fill:#1E2778;" d="M416.167,352.794v-78.532l-28.456,57.098H371.45l-28.457-57.098v78.532h-30.304V221.599h32.892
				l34,68.554l34.184-68.554h32.706v131.195H416.167z"/>
		</g>
	</g>
	<g>
		<rect x="60.654" y="377.272" style="fill:#9AA1ED;" width="634" height="14.144"/>
		<g>
			<path style="fill:#9AA1ED;" d="M75.225,377.272h5.019c4.96-2.299,9.849-6.625,7.765-9.868c-1.344-2.092-3.969-1.096-5.937,0.402
				c1.889-3.941,3.684-7.932,4.889-11.978c1.181-3.964,0.323-9.617-4.81-9.854c-4.451-0.206-7.66,4.171-8.763,8.001
				c-1.238,4.298-0.624,8.674,0.007,13.048c-2.467-4.449-9.3-9.932-11.927-6.252C56.576,367.626,75.344,377.218,75.225,377.272z"/>
			<path style="fill:#9AA1ED;" d="M680.084,377.272h-5.019c-4.96-2.299-9.849-6.625-7.765-9.868
				c1.344-2.092,3.969-1.096,5.937,0.402c-1.889-3.941-3.684-7.932-4.888-11.978c-1.181-3.964-0.323-9.617,4.81-9.854
				c4.451-0.206,7.659,4.171,8.763,8.001c1.238,4.298,0.624,8.674-0.008,13.048c2.467-4.449,9.3-9.932,11.927-6.252
				C698.733,367.626,679.965,377.218,680.084,377.272z"/>
		</g>
	</g>
	<g>
		<g>
			<g>
				<path style="fill:#1E2778;" d="M534.42,364.268h-67.152c-6.145,0-11.127-4.982-11.127-11.127v-25.808
					c0-5.699,4.62-10.318,10.318-10.318h68.77c5.699,0,10.318,4.62,10.318,10.318v25.808
					C545.547,359.286,540.566,364.268,534.42,364.268z"/>
				<path style="fill:#1B236B;" d="M456.141,352.982v0.159c0,6.145,4.982,11.127,11.127,11.127h67.152
					c6.145,0,11.127-4.982,11.127-11.127v-0.159H456.141z"/>
				<g>
					<g>
						<path style="fill:#39439E;" d="M487.028,320.252H466.46c-3.905,0-7.082,3.177-7.082,7.081v17.915h27.65V320.252z"/>
						<path style="fill:#39439E;" d="M535.229,320.252h-46.718v24.997h53.799v-17.915
							C542.31,323.429,539.134,320.252,535.229,320.252z"/>
						<g>
							<g>
								<g>
									<rect x="492.349" y="323.309" style="fill:#EBAA28;" width="2.697" height="2.697"/>
									<rect x="492.349" y="328.704" style="fill:#F7E247;" width="2.697" height="2.697"/>
									<rect x="492.349" y="334.099" style="fill:#EBAA28;" width="2.697" height="2.698"/>
									<rect x="492.349" y="339.494" style="fill:#F7E247;" width="2.697" height="2.697"/>
								</g>
								<g>
									<rect x="497.339" y="323.309" style="fill:#FFFFFF;" width="2.697" height="2.697"/>
									<rect x="497.339" y="328.704" style="fill:#EBAA28;" width="2.697" height="2.697"/>
									<rect x="497.339" y="334.099" style="fill:#F7E247;" width="2.697" height="2.698"/>
									<rect x="497.339" y="339.494" style="fill:#FFFFFF;" width="2.697" height="2.697"/>
								</g>
								<g>
									<rect x="502.33" y="323.309" style="fill:#F7E247;" width="2.697" height="2.697"/>
									<rect x="502.33" y="328.704" style="fill:#FFFFFF;" width="2.697" height="2.697"/>
									<rect x="502.33" y="334.099" style="fill:#F7E247;" width="2.697" height="2.698"/>
									<rect x="502.33" y="339.494" style="fill:#EBAA28;" width="2.697" height="2.697"/>
								</g>
							</g>
							<g>
								<rect x="507.32" y="323.309" style="fill:#1E2778;" width="25.848" height="2.697"/>
								<rect x="507.32" y="328.704" style="fill:#1E2778;" width="25.848" height="2.697"/>
								<rect x="507.32" y="334.099" style="fill:#1E2778;" width="25.848" height="2.698"/>
								<rect x="507.32" y="339.494" style="fill:#1E2778;" width="25.848" height="2.697"/>
							</g>
						</g>
						<circle style="fill:#1E2778;" cx="473.203" cy="332.75" r="10.071"/>
					</g>
					<g>
						<rect x="459.378" y="348.441" style="fill:#EBAA28;" width="8.95" height="1.618"/>
						<rect x="474.174" y="348.441" style="fill:#EBAA28;" width="8.95" height="1.618"/>
						<rect x="488.971" y="348.441" style="fill:#39439E;" width="8.95" height="1.618"/>
						<rect x="503.767" y="348.441" style="fill:#39439E;" width="8.95" height="1.618"/>
						<rect x="518.564" y="348.441" style="fill:#39439E;" width="8.95" height="1.618"/>
						<rect x="533.36" y="348.441" style="fill:#39439E;" width="8.95" height="1.618"/>
					</g>
				</g>
			</g>
			<g>
				<path style="fill:#1E2778;" d="M533.891,317.015h-66.094c-6.437,0-11.656-5.219-11.656-11.656V280.08
					c0-5.699,4.62-10.318,10.318-10.318h68.77c5.699,0,10.318,4.62,10.318,10.318v25.279
					C545.547,311.796,540.329,317.015,533.891,317.015z"/>
				<path style="fill:#1B236B;" d="M456.141,305.146v0.213c0,6.437,5.219,11.656,11.656,11.656h66.094
					c6.438,0,11.656-5.219,11.656-11.656v-0.213H456.141z"/>
				<g>
					<g>
						<path style="fill:#39439E;" d="M487.028,272.999H466.46c-3.905,0-7.082,3.177-7.082,7.082v17.915h27.65V272.999z"/>
						<path style="fill:#39439E;" d="M535.229,272.999h-46.718v24.997h53.799v-17.915
							C542.31,276.176,539.134,272.999,535.229,272.999z"/>
						<g>
							<g>
								<g>
									<rect x="492.349" y="276.056" style="fill:#EBAA28;" width="2.697" height="2.697"/>
									<rect x="492.349" y="281.451" style="fill:#F7E247;" width="2.697" height="2.697"/>
									<rect x="492.349" y="286.846" style="fill:#EBAA28;" width="2.697" height="2.697"/>
									<rect x="492.349" y="292.241" style="fill:#F7E247;" width="2.697" height="2.698"/>
								</g>
								<g>
									<rect x="497.339" y="276.056" style="fill:#FFFFFF;" width="2.697" height="2.697"/>
									<rect x="497.339" y="281.451" style="fill:#EBAA28;" width="2.697" height="2.697"/>
									<rect x="497.339" y="286.846" style="fill:#F7E247;" width="2.697" height="2.697"/>
									<rect x="497.339" y="292.241" style="fill:#FFFFFF;" width="2.697" height="2.698"/>
								</g>
								<g>
									<rect x="502.33" y="276.056" style="fill:#F7E247;" width="2.697" height="2.697"/>
									<rect x="502.33" y="281.451" style="fill:#FFFFFF;" width="2.697" height="2.697"/>
									<rect x="502.33" y="286.846" style="fill:#F7E247;" width="2.697" height="2.697"/>
									<rect x="502.33" y="292.241" style="fill:#EBAA28;" width="2.697" height="2.698"/>
								</g>
							</g>
							<g>
								<rect x="507.32" y="276.056" style="fill:#1E2778;" width="25.848" height="2.697"/>
								<rect x="507.32" y="281.451" style="fill:#1E2778;" width="25.848" height="2.697"/>
								<rect x="507.32" y="286.846" style="fill:#1E2778;" width="25.848" height="2.697"/>
								<rect x="507.32" y="292.241" style="fill:#1E2778;" width="25.848" height="2.698"/>
							</g>
						</g>
						<circle style="fill:#1E2778;" cx="473.203" cy="285.497" r="10.071"/>
					</g>
					<g>
						<rect x="459.378" y="301.188" style="fill:#EBAA28;" width="8.95" height="1.618"/>
						<rect x="474.174" y="301.188" style="fill:#EBAA28;" width="8.95" height="1.618"/>
						<rect x="488.971" y="301.188" style="fill:#39439E;" width="8.95" height="1.618"/>
						<rect x="503.767" y="301.188" style="fill:#39439E;" width="8.95" height="1.618"/>
						<rect x="518.564" y="301.188" style="fill:#39439E;" width="8.95" height="1.618"/>
						<rect x="533.36" y="301.188" style="fill:#39439E;" width="8.95" height="1.618"/>
					</g>
				</g>
			</g>
			<g>
				<path style="fill:#1E2778;" d="M533.891,269.762h-66.094c-6.437,0-11.656-5.219-11.656-11.656v-25.279
					c0-5.699,4.62-10.318,10.318-10.318h68.77c5.699,0,10.318,4.62,10.318,10.318v25.279
					C545.547,264.543,540.329,269.762,533.891,269.762z"/>
				<path style="fill:#1B236B;" d="M456.141,257.94v0.166c0,6.438,5.219,11.656,11.656,11.656h66.094
					c6.438,0,11.656-5.219,11.656-11.656v-0.166H456.141z"/>
				<g>
					<g>
						<path style="fill:#39439E;" d="M487.028,225.746H466.46c-3.905,0-7.082,3.177-7.082,7.081v17.916h27.65V225.746z"/>
						<path style="fill:#39439E;" d="M535.229,225.746h-46.718v24.997h53.799v-17.916
							C542.31,228.923,539.134,225.746,535.229,225.746z"/>
						<g>
							<g>
								<g>
									<rect x="492.349" y="228.803" style="fill:#EBAA28;" width="2.697" height="2.697"/>
									<rect x="492.349" y="234.198" style="fill:#F7E247;" width="2.697" height="2.697"/>
									<rect x="492.349" y="239.593" style="fill:#EBAA28;" width="2.697" height="2.697"/>
									<rect x="492.349" y="244.988" style="fill:#F7E247;" width="2.697" height="2.697"/>
								</g>
								<g>
									<rect x="497.339" y="228.803" style="fill:#FFFFFF;" width="2.697" height="2.697"/>
									<rect x="497.339" y="234.198" style="fill:#EBAA28;" width="2.697" height="2.697"/>
									<rect x="497.339" y="239.593" style="fill:#F7E247;" width="2.697" height="2.697"/>
									<rect x="497.339" y="244.988" style="fill:#FFFFFF;" width="2.697" height="2.697"/>
								</g>
								<g>
									<rect x="502.33" y="228.803" style="fill:#F7E247;" width="2.697" height="2.697"/>
									<rect x="502.33" y="234.198" style="fill:#FFFFFF;" width="2.697" height="2.697"/>
									<rect x="502.33" y="239.593" style="fill:#F7E247;" width="2.697" height="2.697"/>
									<rect x="502.33" y="244.988" style="fill:#EBAA28;" width="2.697" height="2.697"/>
								</g>
							</g>
							<g>
								<rect x="507.32" y="228.803" style="fill:#1E2778;" width="25.848" height="2.697"/>
								<rect x="507.32" y="234.198" style="fill:#1E2778;" width="25.848" height="2.697"/>
								<rect x="507.32" y="239.593" style="fill:#1E2778;" width="25.848" height="2.697"/>
								<rect x="507.32" y="244.988" style="fill:#1E2778;" width="25.848" height="2.697"/>
							</g>
						</g>
						<circle style="fill:#1E2778;" cx="473.203" cy="238.244" r="10.071"/>
					</g>
					<g>
						<rect x="459.378" y="253.935" style="fill:#EBAA28;" width="8.95" height="1.618"/>
						<rect x="474.174" y="253.935" style="fill:#EBAA28;" width="8.95" height="1.618"/>
						<rect x="488.971" y="253.935" style="fill:#39439E;" width="8.95" height="1.618"/>
						<rect x="503.767" y="253.935" style="fill:#39439E;" width="8.95" height="1.618"/>
						<rect x="518.564" y="253.935" style="fill:#39439E;" width="8.95" height="1.618"/>
						<rect x="533.36" y="253.935" style="fill:#39439E;" width="8.95" height="1.618"/>
					</g>
				</g>
			</g>
		</g>
		<g>
			<g>
				<g>
					<g>
						<path style="fill:#FFFFFF;" d="M496.801,185.3c6.959,0,13.196,3.027,17.52,7.815l5.17-4.666
							c-5.594-6.195-13.686-10.089-22.69-10.089c-8.44,0-16.082,3.421-21.613,8.952l4.907,4.907
							C484.37,187.944,490.276,185.3,496.801,185.3z"/>
						<g>
							<path style="fill:#FFFFFF;" d="M506.746,200.164l3.297-2.975c-3.21-3.555-7.84-5.802-13.006-5.802
								c-4.843,0-9.228,1.963-12.402,5.137l3.258,3.258c2.665-1.634,5.789-2.593,9.144-2.593
								C500.638,197.189,503.965,198.299,506.746,200.164z"/>
						</g>
					</g>
					<path style="fill:#FFFFFF;" d="M493.839,206.295c0-1.933,1.567-3.5,3.5-3.5c1.933,0,3.5,1.567,3.5,3.5s-1.567,3.5-3.5,3.5
						C495.406,209.795,493.839,208.228,493.839,206.295z"/>
				</g>
			</g>
		</g>
	</g>
	<g>
		<g>
			<polygon style="fill:#F2CF31;" points="661.935,213.761 574.965,213.761 569.314,234.424 569.49,155.924 661.935,155.924 			"/>
			<g>
				<g>
					<rect x="582.904" y="187.245" style="fill:#FFFFFF;" width="64.107" height="3.179"/>
					<rect x="582.904" y="193.867" style="fill:#FFFFFF;" width="64.107" height="3.179"/>
					<rect x="582.904" y="200.49" style="fill:#FFFFFF;" width="39.206" height="3.179"/>
				</g>
				<circle style="fill:#FFFFFF;" cx="591.381" cy="173.407" r="8.477"/>
				<g>
					<polygon style="fill:#FFFFFF;" points="611.916,166.176 612.727,168.672 615.351,168.672 613.228,170.214 614.039,172.71 
						611.916,171.167 609.793,172.71 610.604,170.214 608.481,168.672 611.105,168.672 					"/>
					<polygon style="fill:#1E2778;" points="619.824,166.176 620.635,168.672 623.259,168.672 621.136,170.214 621.947,172.71 
						619.824,171.167 617.701,172.71 618.512,170.214 616.389,168.672 619.013,168.672 					"/>
					<polygon style="fill:#1E2778;" points="627.732,166.176 628.543,168.672 631.167,168.672 629.044,170.214 629.855,172.71 
						627.732,171.167 625.609,172.71 626.42,170.214 624.297,168.672 626.921,168.672 					"/>
					<polygon style="fill:#1E2778;" points="635.64,166.176 636.451,168.672 639.075,168.672 636.952,170.214 637.763,172.71 
						635.64,171.167 633.517,172.71 634.328,170.214 632.205,168.672 634.829,168.672 					"/>
					<polygon style="fill:#1E2778;" points="643.548,166.176 644.359,168.672 646.983,168.672 644.86,170.214 645.671,172.71 
						643.548,171.167 641.425,172.71 642.235,170.214 640.112,168.672 642.737,168.672 					"/>
				</g>
			</g>
		</g>
		<g>
			<rect x="75.036" y="160.564" style="fill:#F2CF31;" width="92.444" height="57.838"/>
			<g>
				<g>
					<rect x="75.036" y="209.231" style="fill:#FFFFFF;" width="92.444" height="3.179"/>
				</g>
				<g>
					<rect x="75.036" y="209.231" style="fill:#1E2778;" width="34.806" height="3.179"/>
				</g>
				
					<ellipse transform="matrix(0.2298 -0.9732 0.9732 0.2298 -91.1575 263.7836)" style="fill:#FFFFFF;" cx="121.073" cy="189.483" rx="8.477" ry="8.477"/>
				<g>
					<polygon style="fill:#1E2778;" points="118.971,186.987 125.011,189.483 118.971,191.979 					"/>
				</g>
			</g>
		</g>
	</g>
	<g>
		<path style="fill:#3A45AB;" d="M160.063,315.833c-2.201-3.675-6.541-2.875-10.104,0.896c-0.89,0.942-2.959,3.746-4.025,5.21
			c-0.322-3.284-0.803-6.535-1.46-9.735c4.679-3.409,17.262-14.041,12.176-19.339c-2.967-3.09-7.946-1.836-10.577,2.635
			c-0.685,1.165-2.891,5.815-3.917,7.996c-0.874-2.627-1.899-5.202-3.104-7.708c4.079-3.165,19.183-16.648,11.096-20.846
			c-3.802-1.974-8.039,0.315-10.317,3.519c-1.032,1.452-1.748,3.101-2.228,4.846c-1.001-3.322-2.326-6.554-3.598-9.532
			c-1.713-4.011-4.706-10.628-10.215-9.14c-7.922,2.139-2.34,12.463,3.578,20.682c-2.791-1.476-5.573-1.701-7.539,1.062
			c-4.585,6.443,13.062,9.616,17.333,10.046c1.112,2.284,2.071,4.626,2.895,7.017c-3.549-2.589-12.156-8.06-15.177-2.72
			c-4.195,7.415,16.084,12.153,17.798,12.538c0.504,2.561,0.888,5.155,1.171,7.771c-2.939-3.572-9.757-10.775-13.804-6.344
			c-5.19,5.682,10.178,13.699,14.417,15.758c0.066,2.587,0.06,5.18-0.009,7.768c-1.81-2.255-6.659-7.643-9.487-4.546
			c-3.322,3.637,5.932,8.702,9.237,10.347c-0.115,1.993-0.265,3.974-0.428,5.946c0.659,0.099,1.32,0.163,1.983,0.203
			c0.163-1.953,0.311-3.915,0.425-5.887c2.813-1.133,11.478-5.515,8.888-9.84c-1.474-2.462-4.381-1.926-6.768,0.6
			c-0.403,0.426-1.169,1.425-1.843,2.331c0.046-2.235,0.047-4.472-0.008-6.705C150.242,329.206,164.04,322.473,160.063,315.833z"/>
		<path style="fill:#3A45AB;" d="M586.311,315.833c2.201-3.675,6.541-2.875,10.104,0.896c0.89,0.942,2.959,3.746,4.025,5.21
			c0.323-3.284,0.802-6.535,1.461-9.735c-4.679-3.409-17.262-14.041-12.176-19.339c2.967-3.09,7.946-1.836,10.577,2.635
			c0.685,1.165,2.891,5.815,3.917,7.996c0.874-2.627,1.899-5.202,3.104-7.708c-4.079-3.165-19.183-16.648-11.096-20.846
			c3.802-1.974,8.039,0.315,10.317,3.519c1.032,1.452,1.748,3.101,2.228,4.846c1.001-3.322,2.326-6.554,3.598-9.532
			c1.713-4.011,4.706-10.628,10.215-9.14c7.922,2.139,2.34,12.463-3.578,20.682c2.791-1.476,5.574-1.701,7.539,1.062
			c4.585,6.443-13.062,9.616-17.333,10.046c-1.112,2.284-2.071,4.626-2.895,7.017c3.549-2.589,12.156-8.06,15.177-2.72
			c4.195,7.415-16.084,12.153-17.798,12.538c-0.504,2.561-0.888,5.155-1.171,7.771c2.939-3.572,9.757-10.775,13.804-6.344
			c5.19,5.682-10.178,13.699-14.417,15.758c-0.066,2.587-0.06,5.18,0.009,7.768c1.81-2.255,6.659-7.643,9.487-4.546
			c3.322,3.637-5.931,8.702-9.237,10.347c0.115,1.993,0.299,3.84,0.462,5.811c-0.36,0.019-1.207,0.001-2.059-0.162
			c-0.163-1.953-0.269-3.415-0.384-5.387c-2.813-1.133-11.478-5.515-8.888-9.84c1.474-2.462,4.381-1.926,6.768,0.6
			c0.403,0.426,1.169,1.425,1.843,2.331c-0.046-2.235-0.047-4.472,0.008-6.705C596.132,329.206,582.334,322.473,586.311,315.833z"/>
	</g>
	<g>
		<g>
			<g>
				<g>
					<g>
						<g>
							<rect x="241.783" y="390" style="fill:#1E2778;" width="43.02" height="1.555"/>
							<rect x="239.534" y="372.433" style="fill:#1E2778;" width="43.02" height="1.555"/>
							<rect x="237.286" y="354.865" style="fill:#1E2778;" width="43.02" height="1.555"/>
						</g>
						<g>
							<polygon style="fill:#1E2778;" points="284.961,411.381 277.698,345.323 282.516,345.323 289.779,411.381 							"/>
							<polygon style="fill:#1E2778;" points="240.858,411.381 233.595,345.323 238.412,345.323 245.676,411.381 							"/>
						</g>
					</g>
					<g>
						<g>
							<rect x="231.242" y="390" style="fill:#3A45AB;" width="43.02" height="1.555"/>
							<rect x="233.49" y="372.433" style="fill:#3A45AB;" width="43.02" height="1.555"/>
							<rect x="235.739" y="354.865" style="fill:#3A45AB;" width="43.02" height="1.555"/>
						</g>
						<g>
							<polygon style="fill:#3A45AB;" points="226.266,411.381 233.529,345.323 238.346,345.323 231.083,411.381 							"/>
							<polygon style="fill:#3A45AB;" points="270.369,411.381 277.632,345.323 282.449,345.323 275.186,411.381 							"/>
						</g>
					</g>
				</g>
				
					<rect x="225.04" y="341.45" transform="matrix(-1 -1.224647e-16 1.224647e-16 -1 516.0443 692.4564)" style="fill:#FAB82A;" width="65.964" height="9.557"/>
			</g>
			<g>
				<g>
					<g>
						<g>
							<path style="fill:#EEC7AC;" d="M255.403,220.012c-0.16-1.419,0.246-2.812,1.146-3.922c0.005-0.007,0.081-0.097,0.086-0.104
								c0.872-1.022,2.088-1.669,3.424-1.821c0.051-0.005,0.102-0.008,0.154-0.007c4.697,0.103,17.634-0.112,21.369-2.303
								c0.128-0.109,0.341-0.316,0.672-0.704c2.984-3.496,9.501-14.504,10.234-15.747l0.005,0.003
								c0.486-1.212,1.917-3.083,1.935-3.104c0.185-0.217,0.367-0.402,0.538-0.544c0.839-0.702,1.873-0.88,2.776-0.992
								c2.306-0.285,3.948,1.16,5.267,2.321c0.254,0.224,0.506,0.446,0.785,0.676c0.615,0.534,0.687,1.396,0.167,2.006
								c-0.55,0.644-1.579,0.785-2.394,0.329c-0.3-0.168-0.541-0.329-0.758-0.492c-0.031,0.039-0.063,0.078-0.095,0.116
								c-0.246,0.288-0.531,0.548-0.871,0.793c-0.165,0.119-0.346,0.213-0.543,0.282c-0.084,0.113-0.17,0.223-0.26,0.328
								c-0.257,0.301-0.53,0.555-0.812,0.755c-0.717,0.509-1.428,0.399-1.942,0.249c-1.325,3.561-5.633,14.663-9.375,19.047
								c-0.392,0.458-0.775,0.841-1.142,1.14c-4.719,3.841-22.089,6.254-23.532,6.448c-1.578,0.4-3.278,0.042-4.563-0.964
								l-0.28-0.22C256.271,222.699,255.563,221.432,255.403,220.012z"/>
							
								<linearGradient id="SVGID_00000111907995462005541470000011370226408524704153_" gradientUnits="userSpaceOnUse" x1="-369.9504" y1="-1556.474" x2="-329.3652" y2="-1556.474" gradientTransform="matrix(0.6492 -0.7606 0.7606 0.6492 1685.5385 957.681)">
								<stop  offset="0.0274" style="stop-color:#FBFCFF"/>
								<stop  offset="1" style="stop-color:#E8EDFD"/>
							</linearGradient>
							<path style="fill:url(#SVGID_00000111907995462005541470000011370226408524704153_);" d="M254.267,220.141
								c-0.195-1.726,0.301-3.421,1.368-4.737c0.008-0.011,0.122-0.149,0.131-0.16c1.061-1.243,2.539-2.029,4.177-2.216
								c0.1-0.01,0.201-0.015,0.295-0.012c6.313,0.139,17.431-0.311,20.673-2.094c0.087-0.082,0.239-0.237,0.475-0.513
								c1.719-2.014,4.671-6.636,6.958-10.349c2.491,1.059,4.777,2.326,6.86,3.941c-2.017,4.858-4.813,10.859-7.423,13.917
								l-0.001,0.001c-0.436,0.51-0.87,0.942-1.288,1.283c-4.878,3.971-21.816,6.384-24.039,6.686
								c-1.899,0.46-3.943,0.018-5.483-1.189l-0.279-0.219C255.323,223.408,254.463,221.867,254.267,220.141z"/>
						</g>
						<g>
							<g>
								<g>
									<polygon style="fill:#DFA796;" points="268.594,325.983 274.878,325.983 275.004,335.725 285.63,339.465 285.63,341.45 
										268.343,341.45 269.163,339.465 									"/>
									<polygon style="fill:#1E2778;" points="275.004,335.725 285.63,339.465 285.63,341.45 268.343,341.45 268.343,339.465 
										268.755,335.725 									"/>
								</g>
								<g>
									<polygon style="fill:#DFA796;" points="234.236,325.983 240.519,325.983 236.971,335.725 247.598,339.465 247.598,341.45 
										230.311,341.45 231.13,339.465 									"/>
									<polygon style="fill:#1E2778;" points="236.971,335.725 247.598,339.465 247.598,341.45 230.311,341.45 230.311,339.465 
										231.558,335.725 									"/>
								</g>
							</g>
							<g>
								<path style="fill:#FFBB00;" d="M259.39,267.455v-6.611h14.398c0,0,2.914,32.872,2.538,74.801h-8.225
									c0,0-1.342-40.302-8.658-68.576l0,0C259.427,267.198,259.407,267.326,259.39,267.455z"/>
								<path style="fill:#FFBB00;" d="M245.486,260.845L245.486,260.845l16.342,0c-4.503,30.093-23.482,74.801-23.482,74.801
									h-7.511C230.835,335.645,243.547,282.156,245.486,260.845z"/>
							</g>
						</g>
						<path style="fill:#FFFFFF;" d="M259.276,212.096h0.885c0.233,0,0.466,0.006,0.698,0.019
							c5.696,0.305,10.134,5.692,10.505,11.331c0.028,0.419,5.302,45.214,5.302,45.214s-15.708,6.608-35.316-1.45l5.751-43.765
							c0.189-6.312,5.106-11.022,11.537-11.334C258.851,212.101,259.064,212.096,259.276,212.096z"/>
						<g>
							<path style="fill:#F1D2BD;" d="M254.94,194.014c0-5.328,4.268-9.659,9.572-9.761c5.473-0.105,9.953,4.479,9.953,9.953
								c0,1.935,0,4.223,0,6.434c0,4.946-4.01,8.955-8.956,8.955h-0.364v7.702c0,2.437-8.826-1.765-8.826-4.202v-5.955
								c0-3.666-0.296-7.34-1.126-10.911C255.028,195.517,254.94,194.775,254.94,194.014z"/>
							<path style="fill:#1E2778;" d="M256.064,207.362c-0.891-0.586-3.145-6.068-3.632-7.743
								c-1.036-3.562-1.153-7.264,0.589-10.667c2.591-5.061,8.249-6.777,13.578-5.624c5.039,1.09,8.656,5.755,8.656,10.877v2.033
								l-13.669-0.009C261.586,196.229,264.713,204.903,256.064,207.362z"/>
							<path style="fill:#F1D2BD;" d="M260.986,198.702c0.544,0,1.035,0.206,1.416,0.536v3.283
								c-0.382,0.329-0.873,0.536-1.416,0.536c-1.203,0-2.177-0.975-2.177-2.178C258.809,199.677,259.784,198.702,260.986,198.702z"
								/>
						</g>
						<g>
							<path style="fill:#F1D2BD;" d="M248.59,222.003c0.431-1.572,1.58-2.873,3.089-3.494l0.33-0.135
								c2.446-1.007,5.282-0.037,6.596,2.255c0.128,0.223,0.24,0.456,0.336,0.701c0.51,1.299,0.49,2.72-0.056,4.003
								c-0.021,0.047-0.044,0.093-0.07,0.137c-2.406,4.036-8.599,15.399-8.533,19.73c0.4,2.182,4.935,10.623,8.73,17.245
								c0,0,0.162,0.281,0.252,0.438c2.162,0.353,4.417,1.918,5.187,1.524c0.409,1.331-1.25,1.315-2.459,1.179
								c1.875,2.261,4.832,4.74,6.034,6.323c0.234,0.308-0.222,0.904-0.568,0.666c-1.188-0.815-3.264-2.294-4.281-3.25
								c0.915,1.326,2.567,3.571,3.117,5.043c0.182,0.488-0.394,0.944-0.78,0.529c-1.289-1.386-2.52-2.819-3.731-4.271
								c0.616,1.591,1.428,2.944,2.044,4.535c0.164,0.424-0.259,0.878-0.684,0.612c-0.996-0.624-2.917-4.056-3.174-4.565
								c0.132,0.655,0.633,1.945,0.765,2.6c0.11,0.543-0.629,0.776-0.889,0.312c-1.021-1.819-2.279-3.418-3.265-5.256
								c-0.515-0.961-1.079-2.315-1.002-3.528c-0.854-0.982-7.402-8.582-10.877-14.645c-1.194-2.084-1.882-3.732-2.104-5.037
								C241.581,239.655,248.048,223.355,248.59,222.003z"/>
							<path style="fill:#FFFFFF;" d="M251.246,217.452l0.328-0.134c2.975-1.225,6.424-0.046,8.022,2.743
								c0.155,0.271,0.293,0.555,0.408,0.852c0.62,1.579,0.595,3.308-0.077,4.887c-0.04,0.091-0.086,0.181-0.132,0.256
								c-3.236,5.428-8.333,15.332-8.372,19.028c0.329,1.454,2.723,6.29,6.14,12.464c-2.033,1.859-4.364,3.007-6.938,3.586
								c-2.294-2.902-5.044-6.605-6.917-9.873c-1.263-2.203-1.995-3.974-2.239-5.415c-1.05-6.199,5.203-22.125,6.036-24.209
								C248.044,219.757,249.436,218.196,251.246,217.452z"/>
							
								<radialGradient id="SVGID_00000165203512591116826410000003273517508592119186_" cx="408.9371" cy="2032.275" r="11.4189" gradientTransform="matrix(0.4973 0.8676 -0.8676 0.4973 1818.3365 -1123.6863)" gradientUnits="userSpaceOnUse">
								<stop  offset="0.0274" style="stop-color:#FBFCFF"/>
								<stop  offset="1" style="stop-color:#E8EDFD"/>
							</radialGradient>
							<path style="fill:url(#SVGID_00000165203512591116826410000003273517508592119186_);" d="M259.928,225.799
								c-0.04,0.091-0.086,0.181-0.132,0.256c-3.236,5.428-8.333,15.332-8.372,19.028c0.329,1.454,2.723,6.29,6.14,12.464
								c-0.63,0.576-7.037-10.906-7.282-12.347C249.232,239.001,260.601,224.221,259.928,225.799z"/>
						</g>
					</g>
				</g>
				<g>
					
						<rect x="296.269" y="176.278" transform="matrix(-0.9131 0.4078 -0.4078 -0.9131 669.7568 236.5582)" style="fill:#FFFFFF;" width="26.787" height="26.787"/>
					<polygon style="fill:#1E2778;" points="302.896,207.362 327.354,196.438 313.066,189.868 310.345,198.063 295.396,190.572 
											"/>
					<path style="fill:#EEC7AC;" d="M295.707,195.152c0.54-0.294,1.261-0.22,1.845-0.377c0.633-0.169,1.188-0.534,1.784-0.795
						c0.31-0.135,0.791-0.394,1.136-0.334c1.088,0.19,0.785,1.112,0.381,1.642c-0.651,0.854-1.897,1.266-2.345,2.278
						c-0.016,0.035-0.014,0.068-0.022,0.103c-0.086,0.072-0.17,0.149-0.258,0.211c-0.337,0.239-0.671,0.338-0.985,0.364
						c-0.431-0.081-0.839-0.228-1.191-0.479C295.257,197.196,294.627,195.74,295.707,195.152z"/>
					<path style="fill:#FFD74A;" d="M304.632,184.697c-0.919-2.058-3.332-2.981-5.39-2.062c-2.058,0.919-2.981,3.332-2.061,5.39
						s3.332,2.981,5.39,2.062S305.551,186.755,304.632,184.697z"/>
				</g>
			</g>
		</g>
		<g>
			<g>
				<g>
					<path style="fill:#EEC7AC;" d="M431.728,285.043c-0.975-1.043-2.299-1.638-3.727-1.675c-0.009-0.001-0.126-0.002-0.135-0.002
						c-1.344,0-2.625,0.505-3.608,1.422c-0.037,0.035-0.073,0.073-0.105,0.113c-2.971,3.639-11.533,13.34-15.625,14.758
						c-0.166,0.027-0.462,0.054-0.972,0.054c-4.597,0-17.2-2.19-18.622-2.439l-0.001,0.006c-1.238-0.417-3.589-0.544-3.617-0.544
						c-0.285,0-0.544,0.018-0.763,0.056c-1.078,0.182-1.885,0.853-2.557,1.468c-1.714,1.569-1.681,3.755-1.654,5.513
						c0.005,0.338,0.011,0.674,0.004,1.036c0.007,0.815,0.616,1.429,1.417,1.429c0.847,0,1.623-0.691,1.805-1.608
						c0.067-0.337,0.1-0.625,0.118-0.896c0.05,0.002,0.101,0.003,0.15,0.003c0.378,0,0.761-0.048,1.169-0.147
						c0.198-0.048,0.387-0.125,0.567-0.23c0.141,0.009,0.28,0.015,0.418,0.015c0.396,0,0.767-0.043,1.102-0.128
						c0.853-0.215,1.23-0.827,1.45-1.316c3.569,1.304,14.809,5.235,20.574,5.235c0.603-0.001,1.143-0.044,1.608-0.128
						c5.985-1.095,19.097-12.741,20.182-13.712c1.329-0.941,2.161-2.466,2.229-4.096l0.014-0.355
						C433.208,287.447,432.704,286.086,431.728,285.043z"/>
					
						<linearGradient id="SVGID_00000042737273408873168240000010502201994400762790_" gradientUnits="userSpaceOnUse" x1="1945.7214" y1="295.2664" x2="1986.3062" y2="295.2664" gradientTransform="matrix(-1 0 0 1 2380.0168 0)">
						<stop  offset="0.0274" style="stop-color:#FBFCFF"/>
						<stop  offset="1" style="stop-color:#E8EDFD"/>
					</linearGradient>
					<path style="fill:url(#SVGID_00000042737273408873168240000010502201994400762790_);" d="M432.563,284.262
						c-1.186-1.269-2.797-1.992-4.491-2.034c-0.013-0.001-0.193-0.004-0.207-0.004c-1.634,0-3.192,0.614-4.397,1.738
						c-0.073,0.069-0.142,0.143-0.201,0.216c-3.993,4.892-11.553,13.057-15.014,14.364c-0.118,0.013-0.336,0.028-0.699,0.028
						c-2.648,0-8.08-0.755-12.389-1.427c-0.811,2.583-1.332,5.144-1.456,7.777c5.004,1.62,11.385,3.389,15.404,3.389h0.001
						c0.671-0.001,1.281-0.05,1.812-0.147c6.187-1.132,19.019-12.449,20.692-13.944c1.583-1.146,2.574-2.988,2.655-4.943
						l0.014-0.354C434.363,287.186,433.749,285.532,432.563,284.262z"/>
				</g>
				<g>
					<g>
						<g>
							<polygon style="fill:#DFA796;" points="416.606,395.914 410.323,395.914 410.197,405.656 399.57,409.396 399.57,411.381 
								416.857,411.381 416.038,409.396 							"/>
							<polygon style="fill:#1E2778;" points="410.197,405.656 399.57,409.396 399.57,411.381 416.857,411.381 416.857,409.396 
								416.445,405.656 							"/>
						</g>
						<g>
							<polygon style="fill:#DFA796;" points="450.965,395.914 444.682,395.914 448.229,405.656 437.603,409.396 437.603,411.381 
								454.89,411.381 454.07,409.396 							"/>
							<polygon style="fill:#1E2778;" points="448.229,405.656 437.603,409.396 437.603,411.381 454.89,411.381 454.89,409.396 
								453.642,405.656 							"/>
						</g>
					</g>
					<g>
						<path style="fill:#FFBB00;" d="M425.811,337.386v-6.611h-14.398c0,0-2.914,32.872-2.538,74.8h8.225
							c0,0,1.342-40.302,8.658-68.576l0,0C425.774,337.129,425.793,337.257,425.811,337.386z"/>
						<path style="fill:#FFBB00;" d="M439.714,330.775L439.714,330.775h-16.342c4.503,30.093,23.482,74.8,23.482,74.8h7.511
							C454.366,405.576,441.654,352.087,439.714,330.775z"/>
					</g>
				</g>
				<path style="fill:#FFFFFF;" d="M425.924,282.027h-0.885c-0.233,0-0.466,0.006-0.698,0.019
					c-5.696,0.305-10.134,5.692-10.505,11.331c-0.028,0.419-5.302,45.214-5.302,45.214s15.708,6.608,35.316-1.45l-5.751-43.765
					c-0.189-6.312-5.106-11.022-11.536-11.334C426.349,282.032,426.137,282.027,425.924,282.027z"/>
				<g>
					<path style="fill:#F1D2BD;" d="M430.26,263.944c0-5.328-4.268-9.659-9.572-9.761c-5.473-0.105-9.953,4.479-9.953,9.953
						c0,1.935,0,4.223,0,6.434c0,4.946,4.01,8.955,8.956,8.955h0.364v7.702c0,2.437,8.826-1.765,8.826-4.203v-5.955
						c0-3.666,0.296-7.34,1.126-10.911C430.173,265.448,430.26,264.706,430.26,263.944z"/>
					<path style="fill:#FFBB00;" d="M429.137,277.293c0.891-0.586,3.145-6.068,3.632-7.743c1.036-3.562,1.153-7.264-0.589-10.667
						c-2.591-5.061-8.249-6.777-13.578-5.624c-5.039,1.09-8.656,5.755-8.656,10.877v2.033l13.669-0.009
						C423.615,266.16,420.487,274.833,429.137,277.293z"/>
					<path style="fill:#F1D2BD;" d="M424.214,268.633c-0.544,0-1.035,0.206-1.416,0.536v3.283c0.382,0.329,0.873,0.536,1.416,0.536
						c1.203,0,2.177-0.975,2.177-2.178C426.392,269.608,425.417,268.633,424.214,268.633z"/>
				</g>
				<g>
					<path style="fill:#FFFFFF;" d="M376.186,306.867l0.003,1.685c0.001,0.63,0.512,1.141,1.143,1.141
						c0.001,0,18.327-0.032,18.327-0.032c0.302-0.001,0.594-0.122,0.807-0.336c0.214-0.215,0.335-0.506,0.334-0.809l-0.003-1.648
						H376.186z"/>
					<path style="fill:#F1D2BD;" d="M435.181,294.166l-0.047-0.354c-0.343-2.623-2.595-4.601-5.236-4.601
						c-0.257,0-0.516,0.018-0.776,0.057c-1.381,0.204-2.604,0.928-3.445,2.04c-0.03,0.041-0.059,0.084-0.084,0.129
						c-2.305,4.095-9.084,15.118-12.874,17.214c-2.091,0.738-11.67,1.001-19.303,1.001c0,0-0.625-0.001-0.626-0.001
						c-0.001,0-9.566,0.017-9.566,0.017c-0.302,0-0.592,0.121-0.806,0.335c-0.391,0.39-0.6,0.898-0.576,1.395
						c0.022,0.477,0.257,0.922,0.66,1.253c0.206,0.17,0.463,0.26,0.725,0.26c0.098,0,0.196-0.012,0.292-0.038
						c0.212-0.056,0.42-0.084,0.636-0.084c0.588,0,1.215,0.201,2.01,0.455c1.241,0.398,2.786,0.893,5.031,0.893
						c0.452,0,0.925-0.029,1.401-0.07c1.223,0.242,11.12,2.158,18.133,2.158c2.402,0,4.174-0.223,5.416-0.68
						c5.711-2.102,16.636-15.818,17.539-16.961C434.835,297.428,435.393,295.784,435.181,294.166z"/>
					<path style="fill:#FFFFFF;" d="M436.314,294.016l-0.047-0.352c-0.416-3.191-3.155-5.596-6.369-5.596
						c-0.313,0-0.627,0.022-0.942,0.069c-1.678,0.248-3.166,1.128-4.202,2.496c-0.059,0.08-0.114,0.165-0.156,0.242
						c-3.1,5.506-9.158,14.854-12.345,16.725c-1.425,0.438-6.811,0.766-13.866,0.871c-0.602,2.689-0.439,5.282,0.339,7.803
						c3.659,0.547,8.239,1.092,12.005,1.092c2.539,0,4.44-0.245,5.811-0.75c5.9-2.171,16.608-15.517,18.002-17.275
						C435.907,297.94,436.568,295.956,436.314,294.016z"/>
					
						<radialGradient id="SVGID_00000181767786517155206100000017121918106337736364_" cx="1968.3973" cy="299.8094" r="11.4191" gradientTransform="matrix(-1 0 0 1 2380.0168 0)" gradientUnits="userSpaceOnUse">
						<stop  offset="0.0274" style="stop-color:#FBFCFF"/>
						<stop  offset="1" style="stop-color:#E8EDFD"/>
					</radialGradient>
					<path style="fill:url(#SVGID_00000181767786517155206100000017121918106337736364_);" d="M424.754,290.634
						c-0.059,0.08-0.114,0.165-0.156,0.242c-3.1,5.506-9.158,14.854-12.345,16.725c-1.425,0.438-6.811,0.766-13.866,0.871
						c-0.186,0.833,12.961,0.683,14.333,0.178C418.62,306.479,425.79,289.266,424.754,290.634z"/>
				</g>
			</g>
			<g>
				<polygon style="fill:#FFFFFF;" points="398.3,220.583 367.082,220.583 367.082,242.363 377.987,242.363 380.245,246.274 
					382.691,250.511 385.138,246.274 387.396,242.363 398.3,242.363 				"/>
			</g>
		</g>
	</g>
</g>
<g id="OBJECTS">
</g>
</svg>
